<svg width="216" height="39" viewBox="0 0 216 39" fill="none" xmlns="http://www.w3.org/2000/svg">
<path d="M12.728 38.624C10.3707 38.624 8.29067 38.0173 6.488 36.804C4.68533 35.5907 3.28133 33.9613 2.276 31.916C1.27067 29.836 0.768 27.496 0.768 24.896C0.768 22.192 1.35733 19.7827 2.536 17.668C3.71467 15.5187 5.37867 13.82 7.528 12.572C9.712 11.324 12.2773 10.7 15.224 10.7C18.2053 10.7 20.736 11.324 22.816 12.572C24.9307 13.7853 26.5427 15.4667 27.652 17.616C28.796 19.7307 29.368 22.1053 29.368 24.74V38H21.464V33.736H21.256C20.7707 34.672 20.1467 35.5213 19.384 36.284C18.6213 37.012 17.6853 37.584 16.576 38C15.5013 38.416 14.2187 38.624 12.728 38.624ZM15.12 31.656C16.3333 31.656 17.3907 31.3613 18.292 30.772C19.228 30.148 19.9387 29.2987 20.424 28.224C20.9093 27.1493 21.152 25.9533 21.152 24.636C21.152 23.3533 20.9093 22.192 20.424 21.152C19.9387 20.112 19.228 19.2973 18.292 18.708C17.3907 18.084 16.3333 17.772 15.12 17.772C13.872 17.772 12.78 18.084 11.844 18.708C10.908 19.2973 10.1973 20.112 9.712 21.152C9.22667 22.192 8.984 23.3533 8.984 24.636C8.984 25.9533 9.22667 27.1493 9.712 28.224C10.1973 29.2987 10.908 30.148 11.844 30.772C12.78 31.3613 13.872 31.656 15.12 31.656ZM35.3285 38V0.039999H43.3885V38H35.3285ZM49.3441 38V22.244C49.3441 20.06 49.8468 18.1013 50.8521 16.368C51.8921 14.6 53.3655 13.2133 55.2721 12.208C57.1788 11.2027 59.4495 10.7 62.0841 10.7C63.4015 10.7 64.6148 10.856 65.7241 11.168C66.8335 11.4453 67.8388 11.844 68.7401 12.364C69.6761 12.8493 70.4735 13.4387 71.1321 14.132H71.2361C71.9295 13.4387 72.7268 12.8493 73.6281 12.364C74.5641 11.844 75.5868 11.4453 76.6961 11.168C77.8401 10.856 79.0708 10.7 80.3881 10.7C83.0228 10.7 85.2935 11.2027 87.2001 12.208C89.1068 13.2133 90.5801 14.6 91.6201 16.368C92.6601 18.1013 93.1801 20.06 93.1801 22.244V38H85.0681V22.504C85.0681 21.6373 84.8428 20.8573 84.3921 20.164C83.9761 19.436 83.4041 18.8467 82.6761 18.396C81.9481 17.9453 81.1161 17.72 80.1801 17.72C79.2441 17.72 78.3948 17.9453 77.6321 18.396C76.9041 18.8467 76.3321 19.436 75.9161 20.164C75.5001 20.8573 75.2921 21.6373 75.2921 22.504V38H67.2321V22.504C67.2321 21.6373 67.0068 20.8573 66.5561 20.164C66.1401 19.436 65.5508 18.8467 64.7881 18.396C64.0601 17.9453 63.2281 17.72 62.2921 17.72C61.3561 17.72 60.5068 17.9453 59.7441 18.396C59.0161 18.8467 58.4441 19.436 58.0281 20.164C57.6121 20.8573 57.4041 21.6373 57.4041 22.504V38H49.3441ZM109.873 38.624C107.515 38.624 105.435 38.0173 103.633 36.804C101.83 35.5907 100.426 33.9613 99.4205 31.916C98.4152 29.836 97.9125 27.496 97.9125 24.896C97.9125 22.192 98.5019 19.7827 99.6805 17.668C100.859 15.5187 102.523 13.82 104.673 12.572C106.857 11.324 109.422 10.7 112.369 10.7C115.35 10.7 117.881 11.324 119.961 12.572C122.075 13.7853 123.687 15.4667 124.797 17.616C125.941 19.7307 126.513 22.1053 126.513 24.74V38H118.609V33.736H118.401C117.915 34.672 117.291 35.5213 116.529 36.284C115.766 37.012 114.83 37.584 113.721 38C112.646 38.416 111.363 38.624 109.873 38.624ZM112.265 31.656C113.478 31.656 114.535 31.3613 115.437 30.772C116.373 30.148 117.083 29.2987 117.569 28.224C118.054 27.1493 118.297 25.9533 118.297 24.636C118.297 23.3533 118.054 22.192 117.569 21.152C117.083 20.112 116.373 19.2973 115.437 18.708C114.535 18.084 113.478 17.772 112.265 17.772C111.017 17.772 109.925 18.084 108.989 18.708C108.053 19.2973 107.342 20.112 106.857 21.152C106.371 22.192 106.129 23.3533 106.129 24.636C106.129 25.9533 106.371 27.1493 106.857 28.224C107.342 29.2987 108.053 30.148 108.989 30.772C109.925 31.3613 111.017 31.656 112.265 31.656ZM132.473 38V22.66C132.473 20.4413 133.01 18.4307 134.085 16.628C135.16 14.8253 136.685 13.3867 138.661 12.312C140.672 11.2373 143.046 10.7 145.785 10.7C148.558 10.7 150.916 11.2373 152.857 12.312C154.833 13.3867 156.341 14.8253 157.381 16.628C158.421 18.4307 158.941 20.4413 158.941 22.66V38H150.881V22.868C150.881 21.932 150.656 21.0827 150.205 20.32C149.754 19.5227 149.13 18.8987 148.333 18.448C147.57 17.9627 146.704 17.72 145.733 17.72C144.728 17.72 143.826 17.9627 143.029 18.448C142.266 18.8987 141.66 19.5227 141.209 20.32C140.758 21.0827 140.533 21.932 140.533 22.868V38H132.473ZM175.685 38.624C173.328 38.624 171.248 38.0173 169.445 36.804C167.642 35.5907 166.238 33.9613 165.233 31.916C164.228 29.836 163.725 27.496 163.725 24.896C163.725 22.192 164.314 19.7827 165.493 17.668C166.672 15.5187 168.336 13.82 170.485 12.572C172.669 11.324 175.234 10.7 178.181 10.7C181.162 10.7 183.693 11.324 185.773 12.572C187.888 13.7853 189.5 15.4667 190.609 17.616C191.753 19.7307 192.325 22.1053 192.325 24.74V38H184.421V33.736H184.213C183.728 34.672 183.104 35.5213 182.341 36.284C181.578 37.012 180.642 37.584 179.533 38C178.458 38.416 177.176 38.624 175.685 38.624ZM178.077 31.656C179.29 31.656 180.348 31.3613 181.249 30.772C182.185 30.148 182.896 29.2987 183.381 28.224C183.866 27.1493 184.109 25.9533 184.109 24.636C184.109 23.3533 183.866 22.192 183.381 21.152C182.896 20.112 182.185 19.2973 181.249 18.708C180.348 18.084 179.29 17.772 178.077 17.772C176.829 17.772 175.737 18.084 174.801 18.708C173.865 19.2973 173.154 20.112 172.669 21.152C172.184 22.192 171.941 23.3533 171.941 24.636C171.941 25.9533 172.184 27.1493 172.669 28.224C173.154 29.2987 173.865 30.148 174.801 30.772C175.737 31.3613 176.829 31.656 178.077 31.656ZM211.39 38C208.616 38 206.155 37.428 204.006 36.284C201.856 35.1053 200.158 33.528 198.91 31.552C197.662 29.5413 197.038 27.2533 197.038 24.688C197.038 22.1227 197.662 19.852 198.91 17.876C200.158 15.8653 201.856 14.2707 204.006 13.092C206.155 11.9133 208.616 11.324 211.39 11.324H215.394V18.136H211.702C210.35 18.136 209.188 18.4307 208.218 19.02C207.247 19.5747 206.484 20.3547 205.93 21.36C205.41 22.3307 205.15 23.44 205.15 24.688C205.15 25.936 205.41 27.0627 205.93 28.068C206.484 29.0387 207.247 29.8187 208.218 30.408C209.188 30.9627 210.35 31.24 211.702 31.24H215.394V38H211.39Z" fill="white"/>
</svg>
